<svg xmlns="http://www.w3.org/2000/svg" xmlns:xlink="http://www.w3.org/1999/xlink" viewBox="383 46.737 380 370.2154" width="417" height="406.2626889473684" x="41.5px" y="46.8687px" preserveAspectRatio="none"><defs/><style>.aIptOCySncolors-35e2a9183-76d9-424c-9650-12d411a6ae69 {fill:#EFEFEF;fill-opacity:1;}.aIptOCySncolors-45e2a9183-76d9-424c-9650-12d411a6ae69 {fill:#0A0A0A;fill-opacity:1;}.aIptOCySncolors-55e2a9183-76d9-424c-9650-12d411a6ae69 {fill:#FBFBFB;fill-opacity:1;}.aIptOCySncolors-65e2a9183-76d9-424c-9650-12d411a6ae69 {fill:#3E4AB8;fill-opacity:1;}.aIptOCySncolors-75e2a9183-76d9-424c-9650-12d411a6ae69 {fill:#A0A0A0;fill-opacity:1;}.companyName5e2a9183-76d9-424c-9650-12d411a6ae69 {fill:#EFEFEF;fill-opacity:1;}.icon3-str5e2a9183-76d9-424c-9650-12d411a6ae69 {stroke:#3E4AB8;stroke-opacity:1;}.icon35e2a9183-76d9-424c-9650-12d411a6ae69 {fill:#3E4AB8;fill-opacity:1;}.shape5e2a9183-76d9-424c-9650-12d411a6ae69 {fill:#0A0A0A;fill-opacity:1;}</style><g opacity="1" transform="rotate(0 383 76.3477)">
<svg width="380" height="340.6047" x="383" y="76.3477" version="1.1" preserveAspectRatio="none" viewBox="5.976081848144531 15.80335807800293 188.02392578125 168.53155517578125">
  <g transform="matrix(1 0 0 1 0 0)"><g><path d="M91.052 173.189C119.033 208.059 194 154.166 194 107.109 194 72.067 160 19 113.041 16 71.147 13.324 9.093 38.026 6.094 86.084S58 132 91.052 173.189z" data-color="1" class="shape5e2a9183-76d9-424c-9650-12d411a6ae69"/></g></g>
</svg>
</g><g opacity="1" transform="rotate(0 401.2916 46.737)">
<svg width="343.4168" height="353.7025" x="401.2916" y="46.737" version="1.1" preserveAspectRatio="none" viewBox="-0.72 -31.8 110.63999999999999 113.96">
  <g transform="matrix(1 0 0 1 0 0)" class="companyName5e2a9183-76d9-424c-9650-12d411a6ae69"><path id="id-5e2a9183-76d9-424c-9650-12d411a6ae69D6z1nYkh15" d="M35.76-3.36Q35.88-2.04 36.44-1.44Q37-0.84 37.72-0.80L37.72-0.80L37.56 0Q35.96-0.12 33.20-0.12L33.20-0.12Q29.96-0.12 28.40 0L28.40 0L28.56-0.80Q29.92-0.88 30.66-1.14Q31.40-1.40 31.72-2.10Q32.04-2.80 32.00-4.16L32.00-4.16L31.64-10.72L21.80-10.72L18.80-6.48Q16.92-3.84 16.92-2.52L16.92-2.52Q16.92-0.88 19.88-0.80L19.88-0.80L19.68 0Q17.48-0.12 15.12-0.12L15.12-0.12Q13.40-0.12 12.12 0L12.12 0L12.32-0.80Q14.16-1.20 16.32-4.28L16.32-4.28L33.56-28.52L34.16-28.52L35.76-3.36ZM22.36-11.52L31.60-11.52L30.92-23.64L22.36-11.52Z M61.20-6.48L61.96-6.48L60.96-3.56Q59.52 0.56 56.12 0.56L56.12 0.56Q54.32 0.56 53.60-0.60L53.60-0.60Q53.28-1.08 53.28-1.92L53.28-1.92Q53.28-3 53.96-5.04L53.96-5.04L57.76-16.48Q58.16-17.80 58.16-18.44L58.16-18.44Q58.16-19.84 56.88-19.84L56.88-19.84Q55.36-19.84 53.42-17.62Q51.48-15.40 49.60-11.52Q47.72-7.64 46.36-2.92L46.36-2.92L45.64 0L42.16 0L46.96-17.16Q47.24-18.20 47.24-18.64L47.24-18.64Q47.24-19.64 46.36-19.64L46.36-19.64Q45.48-19.64 44.80-18.76Q44.12-17.88 43.28-15.56L43.28-15.56L42.76-14.08L42.00-14.08L43.00-17Q44.44-21.12 47.76-21.12L47.76-21.12Q49.04-21.12 49.58-20.50Q50.12-19.88 50.12-18.76L50.12-18.76Q50.12-17.68 49.56-15.52L49.56-15.52L48.16-10.04Q50.72-16.08 53.06-18.60Q55.40-21.12 58.20-21.12L58.20-21.12Q61.44-21.12 61.44-18.12L61.44-18.12Q61.44-16.80 60.84-15.08L60.84-15.08L56.96-3.40Q56.64-2.44 56.64-1.88L56.64-1.88Q56.64-0.92 57.60-0.92L57.60-0.92Q58.40-0.92 59.14-1.82Q59.88-2.72 60.68-5L60.68-5L61.20-6.48Z M81.24-21.12Q82.44-21.12 83.02-20.52Q83.60-19.92 83.60-18.96L83.60-18.96Q83.60-18.08 83.02-17.14Q82.44-16.20 81.28-16.20L81.28-16.20Q80.48-16.20 80.10-16.66Q79.72-17.12 79.72-17.80L79.72-17.80Q79.72-18.36 80.08-19.06Q80.44-19.76 81-20.28L81-20.28L80.92-20.28Q80.48-20.28 80.16-20.14Q79.84-20 79.44-19.72L79.44-19.72Q78.88-19.28 78.46-18.58Q78.04-17.88 77.52-16.68L77.52-16.68Q76.52-14.56 75.50-13.32Q74.48-12.08 72.56-11.64L72.56-11.64Q75.08-11.52 76.70-10.58Q78.32-9.64 78.32-7.64L78.32-7.64Q78.32-7.16 78.20-6.56L78.20-6.56L77.40-2.56Q77.32-2.24 77.32-1.76L77.32-1.76Q77.32-1.32 77.52-1.12Q77.72-0.92 78.20-0.92L78.20-0.92Q79-0.92 79.70-1.86Q80.40-2.80 81.16-5L81.16-5L81.64-6.48L82.40-6.48L81.44-3.56Q80.12 0.56 76.68 0.56L76.68 0.56Q75.52 0.56 74.80-0.08Q74.08-0.72 74.08-2.04L74.08-2.04Q74.08-2.64 74.24-3.24L74.24-3.24L74.96-6.68Q75.16-7.60 75.16-8.16L75.16-8.16Q75.16-9.68 74.08-10.44Q73-11.20 70.44-11.40L70.44-11.40L67.08 0L63.60 0L71.52-26.68Q71.72-27.36 71.72-27.76L71.72-27.76Q71.72-28.56 71.08-28.94Q70.44-29.32 68.96-29.32L68.96-29.32L69.20-30.16Q73.36-30.20 76.40-31.80L76.40-31.80L70.56-11.88Q72.44-12.04 73.60-12.76Q74.76-13.48 75.38-14.44Q76-15.40 76.72-16.96L76.72-16.96Q77.24-18.16 77.70-18.92Q78.16-19.68 78.84-20.20L78.84-20.20Q80.08-21.12 81.24-21.12L81.24-21.12Z M92.08-27.32Q92.08-28.52 92.98-29.46Q93.88-30.40 95.04-30.40L95.04-30.40Q95.96-30.40 96.52-29.80Q97.08-29.20 97.08-28.32L97.08-28.32Q97.08-27.12 96.16-26.20Q95.24-25.28 94.08-25.28L94.08-25.28Q93.20-25.28 92.64-25.86Q92.08-26.44 92.08-27.32L92.08-27.32ZM90.88-17.16Q91.20-18.12 91.20-18.64L91.20-18.64Q91.20-19.64 90.32-19.64L90.32-19.64Q89.40-19.64 88.68-18.68Q87.96-17.72 87.16-15.56L87.16-15.56L86.60-14.08L85.84-14.08L86.88-17Q87.68-19.28 89.02-20.20Q90.36-21.12 91.84-21.12L91.84-21.12Q94.48-21.12 94.48-18.60L94.48-18.60Q94.48-17.28 93.84-15.52L93.84-15.52L89.56-3.40Q89.24-2.44 89.24-1.92L89.24-1.92Q89.24-0.92 90.20-0.92L90.20-0.92Q91.04-0.92 91.76-1.84Q92.48-2.76 93.32-5L93.32-5L93.88-6.48L94.64-6.48L93.60-3.56Q92.80-1.36 91.50-0.40Q90.20 0.56 88.68 0.56L88.68 0.56Q85.88 0.56 85.88-1.88L85.88-1.88Q85.88-3.04 86.60-5.04L86.60-5.04L90.88-17.16Z M39.48 12.48Q38.16 15.92 36.92 21.68L36.92 21.68L36.04 21.68Q36.28 20.12 36.28 18.92L36.28 18.92Q36.28 17.00 35.64 15.76L35.64 15.76Q34.92 14.28 33.50 13.46Q32.08 12.64 30.40 12.64L30.40 12.64Q27.08 12.64 23.98 15.76Q20.88 18.88 18.96 23.62Q17.04 28.36 17.04 32.80L17.04 32.80Q17.04 36.64 18.56 38.64Q20.08 40.64 22.76 40.64L22.76 40.64Q24.52 40.64 26.48 39.82Q28.44 39 29.88 37.52L29.88 37.52Q30.92 36.48 31.68 35.10Q32.44 33.72 33.48 31.20L33.48 31.20L34.36 31.20Q32.48 38.12 32 40.80L32 40.80L31.12 40.80Q31.24 39.96 31.24 39.44L31.24 39.44Q31.24 38.40 30.76 38.40L30.76 38.40Q30.48 38.40 29.92 38.76L29.92 38.76Q27.84 40.12 26.28 40.74Q24.72 41.36 22.36 41.36L22.36 41.36Q17.92 41.36 15.48 38.96Q13.04 36.56 13.04 31.96L13.04 31.96Q13.04 27.36 15.34 22.68Q17.64 18.00 21.66 14.96Q25.68 11.92 30.48 11.92L30.48 11.92Q32.80 11.92 34.02 12.58Q35.24 13.24 36.44 14.52L36.44 14.52Q36.72 14.88 37.04 14.88L37.04 14.88Q37.40 14.88 37.78 14.30Q38.16 13.72 38.64 12.48L38.64 12.48L39.48 12.48Z M38.64 35.08Q38.64 31.92 40.04 28.30Q41.44 24.68 44.08 22.18Q46.72 19.68 50.20 19.68L50.20 19.68Q52.76 19.68 54.22 21.26Q55.68 22.84 55.68 25.96L55.68 25.96Q55.68 29.12 54.28 32.74Q52.88 36.36 50.24 38.86Q47.60 41.36 44.12 41.36L44.12 41.36Q41.56 41.36 40.10 39.78Q38.64 38.20 38.64 35.08L38.64 35.08ZM49.96 20.48Q47.92 20.48 46.10 23.08Q44.28 25.68 43.18 29.58Q42.08 33.48 42.08 37.08L42.08 37.08Q42.08 38.88 42.64 39.72Q43.20 40.56 44.36 40.56L44.36 40.56Q46.40 40.56 48.22 37.96Q50.04 35.36 51.14 31.46Q52.24 27.56 52.24 23.96L52.24 23.96Q52.24 22.16 51.68 21.32Q51.12 20.48 49.96 20.48L49.96 20.48Z M75.72 35.80L76.20 34.32L76.96 34.32L76.04 37.24Q75.36 39.44 74.08 40.40Q72.80 41.36 71.40 41.36L71.40 41.36Q70.16 41.36 69.52 40.72Q68.88 40.08 68.88 38.88L68.88 38.88Q68.88 37.76 69.40 35.76L69.40 35.76L69.96 33.72Q68.08 37.76 66.12 39.56Q64.16 41.36 61.96 41.36L61.96 41.36Q60 41.36 58.90 40.04Q57.80 38.72 57.80 36.08L57.80 36.08Q57.80 32.76 59.54 28.88Q61.28 25.00 64.26 22.34Q67.24 19.68 70.72 19.68L70.72 19.68Q71.52 19.68 72.20 20.20Q72.88 20.72 73.16 21.60L73.16 21.60L75.16 14.12Q75.32 13.60 75.32 13.04L75.32 13.04Q75.32 12.24 74.70 11.86Q74.08 11.48 72.60 11.48L72.60 11.48L72.84 10.64Q74.96 10.60 76.66 10.20Q78.36 9.80 79.92 9.00L79.92 9.00L72.08 37.40Q71.84 38.36 71.84 38.76L71.84 38.76Q71.84 39.88 72.80 39.88L72.80 39.88Q73.60 39.88 74.28 38.96Q74.96 38.04 75.72 35.80L75.72 35.80ZM63.12 40.08Q64.32 40.08 65.88 38.40Q67.44 36.72 68.96 33.90Q70.48 31.08 71.48 27.88L71.48 27.88L72.88 22.64Q72.64 21.60 72.06 21.10Q71.48 20.60 70.76 20.60L70.76 20.60Q68.32 20.60 66.16 23.18Q64 25.76 62.68 29.56Q61.36 33.36 61.36 36.60L61.36 36.60Q61.36 40.08 63.12 40.08L63.12 40.08Z M95.64 22.32Q95.64 25.56 92 28.00Q88.36 30.44 83.68 31.96L83.68 31.96Q83.24 33.96 83.24 35.84L83.24 35.84Q83.24 39.68 86 39.68L86 39.68Q89.44 39.68 92.16 35.68L92.16 35.68L92.80 36Q91.52 38.20 89.34 39.78Q87.16 41.36 84.76 41.36L84.76 41.36Q82.28 41.36 80.88 39.92Q79.48 38.48 79.48 35.72L79.48 35.72Q79.48 32.68 81.26 28.86Q83.04 25.04 86.08 22.36Q89.12 19.68 92.68 19.68L92.68 19.68Q93.96 19.68 94.80 20.36Q95.64 21.04 95.64 22.32L95.64 22.32ZM91.80 20.44Q90.52 20.44 88.94 21.94Q87.36 23.44 85.98 25.92Q84.60 28.40 83.88 31.20L83.88 31.20Q87.68 29.88 89.32 28.64L89.32 28.64Q90.80 27.48 91.62 25.82Q92.44 24.16 92.44 22.24L92.44 22.24Q92.44 21.16 92.28 20.80Q92.12 20.44 91.80 20.44L91.80 20.44Z M23.04 53.00Q21.60 56.64 20.68 61.16L20.68 61.16L19.88 61.16Q20.12 60.00 20.12 58.88L20.12 58.88Q20.12 56.52 18.72 55.00Q17.32 53.48 14.44 53.48L14.44 53.48Q11.92 53.48 10.38 54.76Q8.84 56.04 8.84 58.56L8.84 58.56Q8.84 60.52 10.06 62.16Q11.28 63.80 13.72 66.04L13.72 66.04Q15.44 67.60 16.48 68.76Q17.52 69.92 18.24 71.32Q18.96 72.72 18.96 74.32L18.96 74.32Q18.96 76.92 17.46 78.70Q15.96 80.48 13.64 81.32Q11.32 82.16 8.84 82.16L8.84 82.16Q6.72 82.16 5.46 81.64Q4.20 81.12 3.16 80.32L3.16 80.32Q2.40 79.72 1.72 79.72L1.72 79.72Q1.24 79.72 0.92 80.20Q0.60 80.68 0.08 81.88L0.08 81.88L-0.72 81.88Q-0.08 80.36 0.54 78.22Q1.16 76.08 2 72.28L2 72.28L2.80 72.28Q2.44 74.16 2.44 75.24L2.44 75.24Q2.44 78.16 4.04 79.76Q5.64 81.36 8.96 81.36L8.96 81.36Q11.68 81.36 13.26 80.12Q14.84 78.88 14.84 76.36L14.84 76.36Q14.84 74.84 14.24 73.56Q13.64 72.28 12.78 71.30Q11.92 70.32 10.40 68.84L10.40 68.84Q8.80 67.32 7.86 66.24Q6.92 65.16 6.26 63.72Q5.60 62.28 5.60 60.52L5.60 60.52Q5.60 58.04 6.86 56.28Q8.12 54.52 10.14 53.62Q12.16 52.72 14.40 52.72L14.40 52.72Q16.04 52.72 17.24 53.12Q18.44 53.52 19.60 54.40L19.60 54.40Q20.56 55.12 20.92 55.12L20.92 55.12Q21.24 55.12 21.54 54.62Q21.84 54.12 22.24 53.00L22.24 53.00L23.04 53.00Z M31.64 61.84L27 78.20Q26.88 78.68 26.88 79.08L26.88 79.08Q26.88 79.88 27.36 80.28Q27.84 80.68 28.60 80.68L28.60 80.68Q29.60 80.68 30.46 79.82Q31.32 78.96 32.16 76.68L32.16 76.68L32.72 75.12L33.48 75.12L32.64 77.64Q31.80 80.12 30.46 81.14Q29.12 82.16 27.16 82.16L27.16 82.16Q25.36 82.16 24.48 81.28Q23.60 80.40 23.60 78.84L23.60 78.84Q23.60 77.80 23.96 76.56L23.96 76.56L28.20 61.84L24.60 61.84L24.80 61.04L28.40 61.04L30.16 54.96Q32.32 54.88 33.76 54.40L33.76 54.40L31.88 61.04L37.16 61.04L37.04 61.84L31.64 61.84Z M55.04 76.60L55.56 75.12L56.32 75.12L55.32 78.04Q53.88 82.16 50.48 82.16L50.48 82.16Q49.84 82.16 49.28 81.88Q48.72 81.60 48.44 81.08L48.44 81.08Q48.20 80.52 48.20 79.84L48.20 79.84Q48.20 78.80 48.76 76.56L48.76 76.56L50 71.56Q47.68 77.28 45.48 79.72Q43.28 82.16 40.68 82.16L40.68 82.16Q37.32 82.16 37.32 79.08L37.32 79.08Q37.32 77.80 37.88 76.12L37.88 76.12L41.76 64.44Q42.08 63.48 42.08 62.96L42.08 62.96Q42.08 61.96 41.12 61.96L41.12 61.96Q40.32 61.96 39.58 62.86Q38.84 63.76 38.04 66.04L38.04 66.04L37.52 67.52L36.76 67.52L37.76 64.60Q39.20 60.48 42.60 60.48L42.60 60.48Q45.40 60.48 45.40 62.96L45.40 62.96Q45.40 64.16 44.76 66.08L44.76 66.08L40.96 77.52Q40.56 78.72 40.56 79.52L40.56 79.52Q40.56 80.88 41.84 80.88L41.84 80.88Q43.40 80.88 45.28 78.58Q47.16 76.28 49 72.20Q50.84 68.12 52.20 63.00L52.20 63.00L52.68 61.04Q54.96 60.96 56.32 60.48L56.32 60.48L51.36 78.20Q51.08 79.24 51.08 79.76L51.08 79.76Q51.08 80.68 51.92 80.68L51.92 80.68Q52.80 80.68 53.54 79.74Q54.28 78.80 55.04 76.60L55.04 76.60Z M76.68 76.60L77.16 75.12L77.92 75.12L77 78.04Q76.32 80.24 75.04 81.20Q73.76 82.16 72.36 82.16L72.36 82.16Q71.12 82.16 70.48 81.52Q69.84 80.88 69.84 79.68L69.84 79.68Q69.84 78.56 70.36 76.56L70.36 76.56L70.92 74.52Q69.04 78.56 67.08 80.36Q65.12 82.16 62.92 82.16L62.92 82.16Q60.96 82.16 59.86 80.84Q58.76 79.52 58.76 76.88L58.76 76.88Q58.76 73.56 60.50 69.68Q62.24 65.80 65.22 63.14Q68.20 60.48 71.68 60.48L71.68 60.48Q72.48 60.48 73.16 61.00Q73.84 61.52 74.12 62.40L74.12 62.40L76.12 54.92Q76.28 54.40 76.28 53.84L76.28 53.84Q76.28 53.04 75.66 52.66Q75.04 52.28 73.56 52.28L73.56 52.28L73.80 51.44Q75.92 51.40 77.62 51.00Q79.32 50.60 80.88 49.80L80.88 49.80L73.04 78.20Q72.80 79.16 72.80 79.56L72.80 79.56Q72.80 80.68 73.76 80.68L73.76 80.68Q74.56 80.68 75.24 79.76Q75.92 78.84 76.68 76.60L76.68 76.60ZM64.08 80.88Q65.28 80.88 66.84 79.20Q68.40 77.52 69.92 74.70Q71.44 71.88 72.44 68.68L72.44 68.68L73.84 63.44Q73.60 62.40 73.02 61.90Q72.44 61.40 71.72 61.40L71.72 61.40Q69.28 61.40 67.12 63.98Q64.96 66.56 63.64 70.36Q62.32 74.16 62.32 77.40L62.32 77.40Q62.32 80.88 64.08 80.88L64.08 80.88Z M87.48 54.28Q87.48 53.08 88.38 52.14Q89.28 51.20 90.44 51.20L90.44 51.20Q91.36 51.20 91.92 51.80Q92.48 52.40 92.48 53.28L92.48 53.28Q92.48 54.48 91.56 55.40Q90.64 56.32 89.48 56.32L89.48 56.32Q88.60 56.32 88.04 55.74Q87.48 55.16 87.48 54.28L87.48 54.28ZM86.28 64.44Q86.60 63.48 86.60 62.96L86.60 62.96Q86.60 61.96 85.72 61.96L85.72 61.96Q84.80 61.96 84.08 62.92Q83.36 63.88 82.56 66.04L82.56 66.04L82.00 67.52L81.24 67.52L82.28 64.60Q83.08 62.32 84.42 61.40Q85.76 60.48 87.24 60.48L87.24 60.48Q89.88 60.48 89.88 63.00L89.88 63.00Q89.88 64.32 89.24 66.08L89.24 66.08L84.96 78.20Q84.64 79.16 84.64 79.68L84.64 79.68Q84.64 80.68 85.60 80.68L85.60 80.68Q86.44 80.68 87.16 79.76Q87.88 78.84 88.72 76.60L88.72 76.60L89.28 75.12L90.04 75.12L89.00 78.04Q88.20 80.24 86.90 81.20Q85.60 82.16 84.08 82.16L84.08 82.16Q81.28 82.16 81.28 79.72L81.28 79.72Q81.28 78.56 82.00 76.56L82.00 76.56L86.28 64.44Z M92.88 75.88Q92.88 72.72 94.28 69.10Q95.68 65.48 98.32 62.98Q100.96 60.48 104.44 60.48L104.44 60.48Q107 60.48 108.46 62.06Q109.92 63.64 109.92 66.76L109.92 66.76Q109.92 69.92 108.52 73.54Q107.12 77.16 104.48 79.66Q101.84 82.16 98.36 82.16L98.36 82.16Q95.80 82.16 94.34 80.58Q92.88 79 92.88 75.88L92.88 75.88ZM104.20 61.28Q102.16 61.28 100.34 63.88Q98.52 66.48 97.42 70.38Q96.32 74.28 96.32 77.88L96.32 77.88Q96.32 79.68 96.88 80.52Q97.44 81.36 98.60 81.36L98.60 81.36Q100.64 81.36 102.46 78.76Q104.28 76.16 105.38 72.26Q106.48 68.36 106.48 64.76L106.48 64.76Q106.48 62.96 105.92 62.12Q105.36 61.28 104.20 61.28L104.20 61.28Z"/></g>
</svg>
</g></svg>